<?xml version="1.0" encoding="utf-8"?>
<!-- Generator: Adobe Illustrator 18.1.1, SVG Export Plug-In . SVG Version: 6.00 Build 0)  -->
<svg version="1.1" id="Layer_1" xmlns="http://www.w3.org/2000/svg" xmlns:xlink="http://www.w3.org/1999/xlink" x="0px" y="0px"
	 viewBox="0 0 300 300" enable-background="new 0 0 300 300" xml:space="preserve">
<g id="XMLID_2_">
	<g>
		<path fill="#F49E35" d="M138.1,288.9c-2.3-40.2-10.9-200.9-5.6-214.3c6-15.4,39.5-11.2,45.9,1.9c5.5,11.5-28.7,172.7-37.7,212.7
			C140.4,290.5,138.2,290.3,138.1,288.9z"/>
	</g>
	<g>
		<path fill="none" stroke="#000000" stroke-miterlimit="10" d="M140.7,289.1c-0.3,1.4-2.4,1.3-2.5-0.2
			c-2.3-40.2-10.9-200.9-5.6-214.3c6-15.4,39.5-11.2,45.9,1.9C183.9,87.9,149.7,249.1,140.7,289.1z"/>
	</g>
</g>
<polygon fill="#A8B075" stroke="#000000" stroke-linecap="round" stroke-linejoin="round" stroke-miterlimit="10" points="
	181.6,46.8 161.7,60.8 161.7,60.7 196.1,30.9 188.4,28.2 163.1,55.4 188.9,16 183,13.8 163.6,46 167.2,18.6 159.9,14.4 156,49.4 
	133.9,15.4 128,17.8 155.2,56.2 155.2,56.2 129,29.9 121.4,33 154.8,59.9 154.8,60.2 136.5,48.3 133.7,56.1 154.4,63.4 154.3,64.7 
	157.7,64.5 160.1,65.3 159.9,64.4 161.3,64.3 161.4,63.6 184.6,54.4 "/>
<line fill="#A8B075" stroke="#000000" stroke-linecap="round" stroke-linejoin="round" stroke-miterlimit="10" x1="138" y1="78.9" x2="171.7" y2="83.8"/>
<line fill="#A8B075" stroke="#000000" stroke-linecap="round" stroke-linejoin="round" stroke-miterlimit="10" x1="138.7" y1="93.3" x2="170.5" y2="96.8"/>
<line fill="#A8B075" stroke="#000000" stroke-linecap="round" stroke-linejoin="round" stroke-miterlimit="10" x1="137.6" y1="109.3" x2="168.6" y2="109.8"/>
<line fill="#A8B075" stroke="#000000" stroke-linecap="round" stroke-linejoin="round" stroke-miterlimit="10" x1="138.3" y1="122.5" x2="165.4" y2="124.4"/>
<line fill="#A8B075" stroke="#000000" stroke-linecap="round" stroke-linejoin="round" stroke-miterlimit="10" x1="139" y1="136.8" x2="162.8" y2="137.8"/>
<line fill="#A8B075" stroke="#000000" stroke-linecap="round" stroke-linejoin="round" stroke-miterlimit="10" x1="138.1" y1="148.7" x2="160.2" y2="150.8"/>
<line fill="#A8B075" stroke="#000000" stroke-linecap="round" stroke-linejoin="round" stroke-miterlimit="10" x1="138.7" y1="160.9" x2="157.4" y2="162"/>
<line fill="#A8B075" stroke="#000000" stroke-linecap="round" stroke-linejoin="round" stroke-miterlimit="10" x1="139.1" y1="169.4" x2="156.1" y2="170.9"/>
<line fill="#A8B075" stroke="#000000" stroke-linecap="round" stroke-linejoin="round" stroke-miterlimit="10" x1="139.7" y1="181.7" x2="156.7" y2="182.8"/>
<line fill="#A8B075" stroke="#000000" stroke-linecap="round" stroke-linejoin="round" stroke-miterlimit="10" x1="140.3" y1="193.7" x2="153.7" y2="194.8"/>
<line fill="#A8B075" stroke="#000000" stroke-linecap="round" stroke-linejoin="round" stroke-miterlimit="10" x1="140.9" y1="205.5" x2="151.9" y2="206.7"/>
<line fill="#A8B075" stroke="#000000" stroke-linecap="round" stroke-linejoin="round" stroke-miterlimit="10" x1="141.4" y1="215.9" x2="149.9" y2="216.9"/>
<line fill="#A8B075" stroke="#000000" stroke-linecap="round" stroke-linejoin="round" stroke-miterlimit="10" x1="141.8" y1="224.4" x2="148.5" y2="225.6"/>
<line fill="#A8B075" stroke="#000000" stroke-linecap="round" stroke-linejoin="round" stroke-miterlimit="10" x1="140.9" y1="234.6" x2="146.6" y2="235.8"/>
<line fill="#A8B075" stroke="#000000" stroke-linecap="round" stroke-linejoin="round" stroke-miterlimit="10" x1="141.4" y1="246.1" x2="144.3" y2="245.9"/>
<line fill="#A8B075" stroke="#000000" stroke-linecap="round" stroke-linejoin="round" stroke-miterlimit="10" x1="140.5" y1="256.6" x2="143.4" y2="256.5"/>
<g id="XMLID_3_">
	<g>
		<path fill="#F49E35" d="M245.5,269c0.2,1.4-1.7,2-2.3,0.7C227,234.4,162.6,92.8,162.6,78.8c0-16,31.6-24,41.9-14.4
			C213.6,72.8,239.5,229.9,245.5,269z"/>
	</g>
	<g>
		<path fill="none" stroke="#000000" stroke-miterlimit="10" d="M245.5,269c0.2,1.4-1.7,2-2.3,0.7C227,234.4,162.6,92.8,162.6,78.8
			c0-16,31.6-24,41.9-14.4C213.6,72.8,239.5,229.9,245.5,269z"/>
	</g>
</g>
<polygon fill="#A8B075" stroke="#000000" stroke-linecap="round" stroke-linejoin="round" stroke-miterlimit="10" points="
	196.7,36.7 183.7,56.3 183.7,56.2 204.2,17.3 196.3,17.5 183.1,50.9 192.4,6.4 186.3,6.5 180.3,42.3 173.8,16.4 165.8,15.2 
	174.5,48 142.7,25.2 138.3,29.4 176.3,54.4 176.3,54.4 143.4,40.1 137.7,45.5 177.2,57.9 177.3,58.2 156.6,54 156.9,61.9 
	178.1,61.2 178.4,62.4 181.4,61.1 183.9,61 183.4,60.2 184.6,59.6 184.4,58.9 202.1,42.5 "/>
<line fill="#A8B075" stroke="#000000" stroke-linecap="round" stroke-linejoin="round" stroke-miterlimit="10" x1="169.1" y1="80.9" x2="201.1" y2="73.4"/>
<line fill="#A8B075" stroke="#000000" stroke-linecap="round" stroke-linejoin="round" stroke-miterlimit="10" x1="174.8" y1="93.6" x2="204.6" y2="85.5"/>
<line fill="#A8B075" stroke="#000000" stroke-linecap="round" stroke-linejoin="round" stroke-miterlimit="10" x1="179.5" y1="108.4" x2="207.5" y2="97.9"/>
<line fill="#A8B075" stroke="#000000" stroke-linecap="round" stroke-linejoin="round" stroke-miterlimit="10" x1="184.7" y1="120" x2="209.8" y2="112.2"/>
<line fill="#A8B075" stroke="#000000" stroke-linecap="round" stroke-linejoin="round" stroke-miterlimit="10" x1="190.4" y1="132.6" x2="212.1" y2="125.2"/>
<line fill="#A8B075" stroke="#000000" stroke-linecap="round" stroke-linejoin="round" stroke-miterlimit="10" x1="193.8" y1="143.6" x2="214.4" y2="137.8"/>
<line fill="#A8B075" stroke="#000000" stroke-linecap="round" stroke-linejoin="round" stroke-miterlimit="10" x1="198.6" y1="154.4" x2="215.8" y2="148.9"/>
<line fill="#A8B075" stroke="#000000" stroke-linecap="round" stroke-linejoin="round" stroke-miterlimit="10" x1="202" y1="161.9" x2="217.8" y2="157.3"/>
<line fill="#A8B075" stroke="#000000" stroke-linecap="round" stroke-linejoin="round" stroke-miterlimit="10" x1="206.8" y1="172.8" x2="222.5" y2="167.8"/>
<line fill="#A8B075" stroke="#000000" stroke-linecap="round" stroke-linejoin="round" stroke-miterlimit="10" x1="211.6" y1="183.3" x2="224" y2="179.6"/>
<line fill="#A8B075" stroke="#000000" stroke-linecap="round" stroke-linejoin="round" stroke-miterlimit="10" x1="216.2" y1="193.7" x2="226.6" y2="191"/>
<line fill="#A8B075" stroke="#000000" stroke-linecap="round" stroke-linejoin="round" stroke-miterlimit="10" x1="220.4" y1="202.9" x2="228.4" y2="200.8"/>
<line fill="#A8B075" stroke="#000000" stroke-linecap="round" stroke-linejoin="round" stroke-miterlimit="10" x1="223.7" y1="210.4" x2="230.2" y2="209.2"/>
<line fill="#A8B075" stroke="#000000" stroke-linecap="round" stroke-linejoin="round" stroke-miterlimit="10" x1="226.5" y1="220" x2="232" y2="219"/>
<line fill="#A8B075" stroke="#000000" stroke-linecap="round" stroke-linejoin="round" stroke-miterlimit="10" x1="231" y1="230.1" x2="233.5" y2="229"/>
<line fill="#A8B075" stroke="#000000" stroke-linecap="round" stroke-linejoin="round" stroke-miterlimit="10" x1="233.9" y1="239.9" x2="236.4" y2="238.8"/>
<g id="XMLID_1_">
	<g>
		<path fill="#F49E35" d="M51.2,257.7c-0.7,1.2-2.6,0.4-2.2-0.9C58.4,219.9,96.2,72.7,104.8,62c9.8-12.2,38.8,1.1,40.8,14.7
			C147.3,88.6,70.7,224.3,51.2,257.7z"/>
	</g>
	<g>
		<path fill="none" stroke="#000000" stroke-miterlimit="10" d="M51.2,257.7c-0.7,1.2-2.6,0.4-2.2-0.9
			C58.4,219.9,96.2,72.7,104.8,62c9.8-12.2,38.8,1.1,40.8,14.7C147.3,88.6,70.7,224.3,51.2,257.7z"/>
	</g>
</g>
<polygon fill="#A8B075" stroke="#000000" stroke-linecap="round" stroke-linejoin="round" stroke-miterlimit="10" points="
	157.2,51.1 135.3,58 135.3,58 174.8,40.9 168.6,36.2 138.1,53.5 172.6,25.3 167.8,21.7 141.2,45.3 152.2,21.5 146.8,15.7 
	133.4,46.1 123.1,9.2 117.2,9.7 130.8,52 130.8,52 114.6,20.9 106.9,21.5 129.3,55.2 129.2,55.5 116.1,39.6 111.4,45.8 128,58.2 
	127.5,59.4 130.6,60.2 132.6,61.7 132.6,60.7 133.9,61.1 134.2,60.4 157.7,58.8 "/>
<line fill="#A8B075" stroke="#000000" stroke-linecap="round" stroke-linejoin="round" stroke-miterlimit="10" x1="108.5" y1="67.5" x2="137.4" y2="81.5"/>
<line fill="#A8B075" stroke="#000000" stroke-linecap="round" stroke-linejoin="round" stroke-miterlimit="10" x1="105" y1="80.6" x2="132.7" y2="92.9"/>
<line fill="#A8B075" stroke="#000000" stroke-linecap="round" stroke-linejoin="round" stroke-miterlimit="10" x1="99.5" y1="94.8" x2="127.3" y2="104.1"/>
<line fill="#A8B075" stroke="#000000" stroke-linecap="round" stroke-linejoin="round" stroke-miterlimit="10" x1="96.3" y1="106.9" x2="120.2" y2="116.3"/>
<line fill="#A8B075" stroke="#000000" stroke-linecap="round" stroke-linejoin="round" stroke-miterlimit="10" x1="92.9" y1="120" x2="114.1" y2="127.7"/>
<line fill="#A8B075" stroke="#000000" stroke-linecap="round" stroke-linejoin="round" stroke-miterlimit="10" x1="88.8" y1="130.4" x2="108" y2="138.6"/>
<line fill="#A8B075" stroke="#000000" stroke-linecap="round" stroke-linejoin="round" stroke-miterlimit="10" x1="85.8" y1="141.7" x2="102.3" y2="148"/>
<line fill="#A8B075" stroke="#000000" stroke-linecap="round" stroke-linejoin="round" stroke-miterlimit="10" x1="83.8" y1="149.4" x2="98.7" y2="155.6"/>
<line fill="#A8B075" stroke="#000000" stroke-linecap="round" stroke-linejoin="round" stroke-miterlimit="10" x1="80.8" y1="160.7" x2="95.8" y2="166.5"/>
<line fill="#A8B075" stroke="#000000" stroke-linecap="round" stroke-linejoin="round" stroke-miterlimit="10" x1="78" y1="171.6" x2="89.7" y2="176.4"/>
<line fill="#A8B075" stroke="#000000" stroke-linecap="round" stroke-linejoin="round" stroke-miterlimit="10" x1="75.1" y1="182.4" x2="84.7" y2="186.7"/>
<line fill="#A8B075" stroke="#000000" stroke-linecap="round" stroke-linejoin="round" stroke-miterlimit="10" x1="72.6" y1="191.9" x2="80" y2="195.3"/>
<line fill="#A8B075" stroke="#000000" stroke-linecap="round" stroke-linejoin="round" stroke-miterlimit="10" x1="70.6" y1="199.7" x2="76.3" y2="202.7"/>
<line fill="#A8B075" stroke="#000000" stroke-linecap="round" stroke-linejoin="round" stroke-miterlimit="10" x1="66.8" y1="208.7" x2="71.7" y2="211.4"/>
<line fill="#A8B075" stroke="#000000" stroke-linecap="round" stroke-linejoin="round" stroke-miterlimit="10" x1="64.1" y1="219.2" x2="66.7" y2="219.9"/>
<line fill="#A8B075" stroke="#000000" stroke-linecap="round" stroke-linejoin="round" stroke-miterlimit="10" x1="60.3" y1="228.5" x2="62.9" y2="229.1"/>
</svg>
